mtllib visual_relay.mtl
o catcher_arm_rig

g catcher_camera_rig
usemtl camera_blue
v 4.92 0.82 1.08
v 5.26 0.82 1.08
v 5.26 1.02 1.08
v 4.92 1.02 1.08
v 4.92 0.82 1.28
v 5.26 0.82 1.28
v 5.26 1.02 1.28
v 4.92 1.02 1.28
f 1 2 3 4
f 5 8 7 6
f 1 5 6 2
f 2 6 7 3
f 3 7 8 4
f 4 8 5 1

g arm_base
usemtl brushed_rail
v 4.60 0.42 0.00
v 4.84 0.42 0.00
v 4.84 0.66 0.00
v 4.60 0.66 0.00
v 4.60 0.42 0.18
v 4.84 0.42 0.18
v 4.84 0.66 0.18
v 4.60 0.66 0.18
f 9 10 11 12
f 13 16 15 14
f 9 13 14 10
f 10 14 15 11
f 11 15 16 12
f 12 16 13 9

g arm_link_a
usemtl arm_light
v 4.70 0.53 0.16
v 5.42 0.53 0.16
v 5.42 0.61 0.16
v 4.70 0.61 0.16
v 4.70 0.53 0.24
v 5.42 0.53 0.24
v 5.42 0.61 0.24
v 4.70 0.61 0.24
f 17 18 19 20
f 21 24 23 22
f 17 21 22 18
f 18 22 23 19
f 19 23 24 20
f 20 24 21 17

g arm_link_b
usemtl warning_amber
v 5.40 0.55 0.16
v 5.94 0.55 0.16
v 5.94 0.61 0.16
v 5.40 0.61 0.16
v 5.40 0.55 0.23
v 5.94 0.55 0.23
v 5.94 0.61 0.23
v 5.40 0.61 0.23
f 25 26 27 28
f 29 32 31 30
f 25 29 30 26
f 26 30 31 27
f 27 31 32 28
f 28 32 29 25

g gripper
usemtl warning_red
v 5.92 0.49 0.13
v 6.04 0.49 0.13
v 6.04 0.53 0.13
v 5.92 0.53 0.13
v 5.92 0.63 0.13
v 6.04 0.63 0.13
v 6.04 0.67 0.13
v 5.92 0.67 0.13
f 33 34 35 36
f 37 40 39 38

g accept_bin
usemtl bin_accept
v 3.84 0.66 0.00
v 4.34 0.66 0.00
v 4.34 1.06 0.00
v 3.84 1.06 0.00
v 3.84 0.66 0.36
v 4.34 0.66 0.36
v 4.34 1.06 0.36
v 3.84 1.06 0.36
f 41 42 43 44
f 41 45 46 42
f 42 46 47 43
f 43 47 48 44
f 44 48 45 41

g reject_bin
usemtl bin_reject
v 4.44 0.66 0.00
v 4.94 0.66 0.00
v 4.94 1.06 0.00
v 4.44 1.06 0.00
v 4.44 0.66 0.36
v 4.94 0.66 0.36
v 4.94 1.06 0.36
v 4.44 1.06 0.36
f 49 50 51 52
f 49 53 54 50
f 50 54 55 51
f 51 55 56 52
f 52 56 53 49
