mtllib visual_relay.mtl
o visual_relay_conveyor_tunnel

g conveyor_belt
usemtl belt_rubber
v 0.0 -0.41 0.00
v 6.0 -0.41 0.00
v 6.0 0.41 0.00
v 0.0 0.41 0.00
v 0.0 -0.41 0.08
v 6.0 -0.41 0.08
v 6.0 0.41 0.08
v 0.0 0.41 0.08
f 1 2 3 4
f 5 8 7 6
f 1 5 6 2
f 2 6 7 3
f 3 7 8 4
f 4 8 5 1

g guard_rail_left
usemtl brushed_rail
v 0.0 -0.56 0.16
v 6.0 -0.56 0.16
v 6.0 -0.51 0.16
v 0.0 -0.51 0.16
v 0.0 -0.56 0.26
v 6.0 -0.56 0.26
v 6.0 -0.51 0.26
v 0.0 -0.51 0.26
f 9 10 11 12
f 13 16 15 14
f 9 13 14 10
f 10 14 15 11
f 11 15 16 12
f 12 16 13 9

g guard_rail_right
usemtl brushed_rail
v 0.0 0.51 0.16
v 6.0 0.51 0.16
v 6.0 0.56 0.16
v 0.0 0.56 0.16
v 0.0 0.51 0.26
v 6.0 0.51 0.26
v 6.0 0.56 0.26
v 0.0 0.56 0.26
f 17 18 19 20
f 21 24 23 22
f 17 21 22 18
f 18 22 23 19
f 19 23 24 20
f 20 24 21 17

g tunnel_shell
usemtl tunnel_dark
v 2.4 -0.62 0.00
v 3.6 -0.62 0.00
v 3.6 0.62 0.00
v 2.4 0.62 0.00
v 2.4 -0.62 1.15
v 3.6 -0.62 1.15
v 3.6 0.62 1.15
v 2.4 0.62 1.15
f 25 29 30 26
f 28 32 31 27
f 29 32 31 30
f 25 28 32 29
f 26 30 31 27

g tunnel_entry_bezel
usemtl brushed_rail
v 2.34 -0.68 0.00
v 2.40 -0.68 0.00
v 2.40 0.68 0.00
v 2.34 0.68 0.00
v 2.34 -0.68 1.22
v 2.40 -0.68 1.22
v 2.40 0.68 1.22
v 2.34 0.68 1.22
f 33 37 38 34
f 34 38 39 35
f 35 39 40 36
f 36 40 37 33

g tunnel_exit_bezel
usemtl brushed_rail
v 3.60 -0.68 0.00
v 3.66 -0.68 0.00
v 3.66 0.68 0.00
v 3.60 0.68 0.00
v 3.60 -0.68 1.22
v 3.66 -0.68 1.22
v 3.66 0.68 1.22
v 3.60 0.68 1.22
f 41 45 46 42
f 42 46 47 43
f 43 47 48 44
f 44 48 45 41

g warning_lights
usemtl warning_red
v 2.32 -0.72 1.04
v 2.38 -0.72 1.04
v 2.38 -0.72 1.10
v 2.32 -0.72 1.10
f 49 50 51 52
usemtl warning_amber
v 3.62 0.72 1.04
v 3.68 0.72 1.04
v 3.68 0.72 1.10
v 3.62 0.72 1.10
f 53 54 55 56
