mtllib visual_relay.mtl
o relay_objects

g red_crate
usemtl red_crate
v -0.18 -0.18 0.00
v 0.18 -0.18 0.00
v 0.18 0.18 0.00
v -0.18 0.18 0.00
v -0.18 -0.18 0.28
v 0.18 -0.18 0.28
v 0.18 0.18 0.28
v -0.18 0.18 0.28
f 1 2 3 4
f 5 8 7 6
f 1 5 6 2
f 2 6 7 3
f 3 7 8 4
f 4 8 5 1

g blue_cylinder
usemtl blue_cylinder
v 0.00 0.20 0.00
v 0.14 0.14 0.00
v 0.20 0.00 0.00
v 0.14 -0.14 0.00
v 0.00 -0.20 0.00
v -0.14 -0.14 0.00
v -0.20 0.00 0.00
v -0.14 0.14 0.00
v 0.00 0.20 0.30
v 0.14 0.14 0.30
v 0.20 0.00 0.30
v 0.14 -0.14 0.30
v 0.00 -0.20 0.30
v -0.14 -0.14 0.30
v -0.20 0.00 0.30
v -0.14 0.14 0.30
f 9 10 11 12 13 14 15 16
f 17 24 23 22 21 20 19 18
f 9 17 18 10
f 10 18 19 11
f 11 19 20 12
f 12 20 21 13
f 13 21 22 14
f 14 22 23 15
f 15 23 24 16
f 16 24 17 9

g yellow_wedge
usemtl yellow_wedge
v -0.22 -0.18 0.00
v 0.22 -0.18 0.00
v 0.22 0.18 0.00
v -0.22 0.18 0.00
v -0.22 -0.18 0.08
v 0.22 -0.18 0.08
v 0.22 0.18 0.24
v -0.22 0.18 0.24
f 25 26 27 28
f 29 32 31 30
f 25 29 30 26
f 26 30 31 27
f 27 31 32 28
f 28 32 29 25

g green_gear
usemtl green_gear
v 0.00 0.25 0.00
v 0.10 0.10 0.00
v 0.25 0.00 0.00
v 0.10 -0.10 0.00
v 0.00 -0.25 0.00
v -0.10 -0.10 0.00
v -0.25 0.00 0.00
v -0.10 0.10 0.00
v 0.00 0.25 0.12
v 0.10 0.10 0.12
v 0.25 0.00 0.12
v 0.10 -0.10 0.12
v 0.00 -0.25 0.12
v -0.10 -0.10 0.12
v -0.25 0.00 0.12
v -0.10 0.10 0.12
f 33 34 35 36 37 38 39 40
f 41 48 47 46 45 44 43 42
f 33 41 42 34
f 34 42 43 35
f 35 43 44 36
f 36 44 45 37
f 37 45 46 38
f 38 46 47 39
f 39 47 48 40
f 40 48 41 33

g white_tag
usemtl white_tag
v -0.20 -0.14 0.00
v 0.20 -0.14 0.00
v 0.20 0.14 0.00
v -0.20 0.14 0.00
v -0.20 -0.14 0.10
v 0.20 -0.14 0.10
v 0.20 0.14 0.10
v -0.20 0.14 0.10
f 49 50 51 52
f 53 56 55 54
f 49 53 54 50
f 50 54 55 51
f 51 55 56 52
f 52 56 53 49
