mtllib visual_relay.mtl
o scout_camera_rig

g sliding_base
usemtl brushed_rail
v 0.78 -1.08 0.00
v 1.22 -1.08 0.00
v 1.22 -0.82 0.00
v 0.78 -0.82 0.00
v 0.78 -1.08 0.10
v 1.22 -1.08 0.10
v 1.22 -0.82 0.10
v 0.78 -0.82 0.10
f 1 2 3 4
f 5 8 7 6
f 1 5 6 2
f 2 6 7 3
f 3 7 8 4
f 4 8 5 1

g mast
usemtl brushed_rail
v 0.96 -0.98 0.10
v 1.04 -0.98 0.10
v 1.04 -0.92 0.10
v 0.96 -0.92 0.10
v 0.96 -0.98 1.18
v 1.04 -0.98 1.18
v 1.04 -0.92 1.18
v 0.96 -0.92 1.18
f 9 10 11 12
f 13 16 15 14
f 9 13 14 10
f 10 14 15 11
f 11 15 16 12
f 12 16 13 9

g pan_tilt_head
usemtl tunnel_dark
v 0.88 -1.04 1.15
v 1.12 -1.04 1.15
v 1.12 -0.86 1.15
v 0.88 -0.86 1.15
v 0.88 -1.04 1.34
v 1.12 -1.04 1.34
v 1.12 -0.86 1.34
v 0.88 -0.86 1.34
f 17 18 19 20
f 21 24 23 22
f 17 21 22 18
f 18 22 23 19
f 19 23 24 20
f 20 24 21 17

g camera_body
usemtl camera_blue
v 1.02 -0.96 1.20
v 1.30 -0.96 1.20
v 1.30 -0.82 1.20
v 1.02 -0.82 1.20
v 1.02 -0.96 1.33
v 1.30 -0.96 1.33
v 1.30 -0.82 1.33
v 1.02 -0.82 1.33
f 25 26 27 28
f 29 32 31 30
f 25 29 30 26
f 26 30 31 27
f 27 31 32 28
f 28 32 29 25
